<svg width="24" height="24" viewBox="0 0 24 24" fill="none" xmlns="http://www.w3.org/2000/svg">
<path d="M11.964 6.97005C11.964 6.97005 8.88899 7.27605 7.27899 5.93505C5.66899 4.59305 6.03599 2.03005 6.03599 2.03005C6.03599 2.03005 9.11099 1.72405 10.722 3.06505C12.332 4.40705 11.964 6.97005 11.964 6.97005Z" stroke="#789E1A" stroke-width="2" stroke-linecap="round" stroke-linejoin="round"/>
<path d="M19 14C19.2652 14 19.5196 13.8947 19.7071 13.7072C19.8946 13.5196 20 13.2653 20 13V11C20 10.7348 19.8946 10.4805 19.7071 10.2929C19.5196 10.1054 19.2652 10 19 10H5C4.73478 10 4.48043 10.1054 4.29289 10.2929C4.10536 10.4805 4 10.7348 4 11V13C4 13.2653 4.10536 13.5196 4.29289 13.7072C4.48043 13.8947 4.73478 14 5 14M19 14H5M19 14L17 22H7L5 14M12.036 6.97005C12.036 6.97005 15.111 7.27605 16.721 5.93505C18.331 4.59305 17.964 2.03005 17.964 2.03005C17.964 2.03005 14.889 1.72405 13.279 3.06505C11.669 4.40705 12.036 6.97005 12.036 6.97005Z" stroke="#789E1A" stroke-width="2" stroke-linecap="round" stroke-linejoin="round"/>
</svg>
