<svg width="10" height="8" viewBox="0 0 10 8" fill="none" xmlns="http://www.w3.org/2000/svg">
<path d="M5 7.6665C4.78725 7.66543 4.57742 7.61701 4.38571 7.52477C4.19401 7.43252 4.02524 7.29875 3.89166 7.13317L0.38333 2.88317C0.178325 2.62731 0.0493183 2.31901 0.0110109 1.99339C-0.0272965 1.66778 0.0266361 1.33796 0.166663 1.0415C0.28023 0.783859 0.465558 0.564348 0.700513 0.409189C0.935468 0.25403 1.21012 0.169781 1.49166 0.166504H8.50833C8.78988 0.169781 9.06453 0.25403 9.29948 0.409189C9.53444 0.564348 9.71976 0.783859 9.83333 1.0415C9.97336 1.33796 10.0273 1.66778 9.98898 1.99339C9.95068 2.31901 9.82167 2.62731 9.61666 2.88317L6.10833 7.13317C5.97475 7.29875 5.80598 7.43252 5.61428 7.52477C5.42257 7.61701 5.21274 7.66543 5 7.6665Z" fill="#364259"/>
</svg>
