<svg width="24" height="24" viewBox="0 0 24 24" fill="none" xmlns="http://www.w3.org/2000/svg">
<path d="M18.375 21C17.3065 21.0232 16.2723 20.6219 15.4991 19.8839C14.7259 19.146 14.2767 18.1317 14.25 17.0633C14.2664 16.3085 14.4934 15.5734 14.9055 14.9408L17.6175 10.9035C17.701 10.7793 17.8138 10.6775 17.9459 10.6072C18.078 10.5368 18.2253 10.5 18.375 10.5C18.5247 10.5 18.672 10.5368 18.8041 10.6072C18.9362 10.6775 19.049 10.7793 19.1325 10.9035L21.795 14.8613C22.2351 15.5131 22.4797 16.2771 22.5 17.0633C22.4733 18.1317 22.0241 19.146 21.2509 19.8839C20.4777 20.6219 19.4435 21.0232 18.375 21ZM18.375 12.465L16.173 15.7403C15.9108 16.1329 15.7643 16.5914 15.75 17.0633C15.8001 17.7252 16.0984 18.3438 16.5851 18.7951C17.0719 19.2464 17.7112 19.4972 18.375 19.4972C19.0388 19.4972 19.6781 19.2464 20.1649 18.7951C20.6516 18.3438 20.9499 17.7252 21 17.0633C20.9824 16.5604 20.8182 16.0737 20.5275 15.663L18.375 12.465Z" fill="black"/>
<path d="M3.75 10.5C4.16421 10.5 4.5 10.1642 4.5 9.75C4.5 9.33579 4.16421 9 3.75 9C3.33579 9 3 9.33579 3 9.75C3 10.1642 3.33579 10.5 3.75 10.5Z" fill="black"/>
<path d="M8.25 15C8.66421 15 9 14.6642 9 14.25C9 13.8358 8.66421 13.5 8.25 13.5C7.83579 13.5 7.5 13.8358 7.5 14.25C7.5 14.6642 7.83579 15 8.25 15Z" fill="black"/>
<path d="M11.25 19.5C11.6642 19.5 12 19.1642 12 18.75C12 18.3358 11.6642 18 11.25 18C10.8358 18 10.5 18.3358 10.5 18.75C10.5 19.1642 10.8358 19.5 11.25 19.5Z" fill="black"/>
<path d="M12.75 12C13.1642 12 13.5 11.6642 13.5 11.25C13.5 10.8358 13.1642 10.5 12.75 10.5C12.3358 10.5 12 10.8358 12 11.25C12 11.6642 12.3358 12 12.75 12Z" fill="black"/>
<path d="M9.75 9C10.1642 9 10.5 8.66421 10.5 8.25C10.5 7.83579 10.1642 7.5 9.75 7.5C9.33579 7.5 9 7.83579 9 8.25C9 8.66421 9.33579 9 9.75 9Z" fill="black"/>
<path d="M20.25 9C20.6642 9 21 8.66421 21 8.25C21 7.83579 20.6642 7.5 20.25 7.5C19.8358 7.5 19.5 7.83579 19.5 8.25C19.5 8.66421 19.8358 9 20.25 9Z" fill="black"/>
<path d="M6.75 21C7.16421 21 7.5 20.6642 7.5 20.25C7.5 19.8358 7.16421 19.5 6.75 19.5C6.33579 19.5 6 19.8358 6 20.25C6 20.6642 6.33579 21 6.75 21Z" fill="black"/>
<path d="M2.25 16.5C2.66421 16.5 3 16.1642 3 15.75C3 15.3358 2.66421 15 2.25 15C1.83579 15 1.5 15.3358 1.5 15.75C1.5 16.1642 1.83579 16.5 2.25 16.5Z" fill="black"/>
<path d="M1.5 4.5H22.5V6H1.5V4.5Z" fill="black"/>
</svg>
