<svg width="25" height="25" viewBox="0 0 25 25" fill="none" xmlns="http://www.w3.org/2000/svg">
<path d="M13.6719 10.5469C13.6719 12.5 12.5 15.2344 12.5 15.2344M12.8906 11.3281C12.8906 11.3281 14.0625 8.20312 11.3281 5.85937C8.59375 3.51562 4.29688 4.29688 4.29688 4.29688C4.29688 4.29688 4.29688 7.42187 6.64062 9.76562C8.98438 12.1094 12.8906 11.3281 12.8906 11.3281ZM13.6719 9.76562C13.6719 9.76562 12.5 6.64063 15.2344 4.29688C17.9688 1.95313 22.2656 2.73437 22.2656 2.73437C22.2656 2.73437 22.2656 5.85937 19.9219 8.20312C17.5781 10.5469 13.6719 9.76562 13.6719 9.76562ZM7.42188 15.2344H17.5781C17.5781 15.2344 18.3594 22.2656 12.5 22.2656C6.64062 22.2656 7.42188 15.2344 7.42188 15.2344Z" stroke="black" stroke-width="1.5" stroke-linecap="round" stroke-linejoin="round"/>
</svg>
