<svg width="24" height="24" viewBox="0 0 24 24" fill="none" xmlns="http://www.w3.org/2000/svg">
<g clip-path="url(#clip0_215_696)">
<path d="M20.3999 7.79997C19.4666 3.86663 15.9999 1.1333 11.9999 1.1333C7.19992 1.1333 3.33325 4.99997 3.33325 9.79997C3.33325 14.3333 6.86658 18.0666 11.3333 18.4V21.7333C11.3333 22.1333 11.5999 22.4 11.9999 22.4C12.3999 22.4 12.6666 22.1333 12.6666 21.7333V12.2L15.7999 9.06663C16.0666 8.79997 16.0666 8.39997 15.7999 8.1333C15.5333 7.86663 15.1332 7.86663 14.8666 8.1333L12.6666 10.4V8.39997L10.4666 6.19997C10.1999 5.9333 9.79992 5.9333 9.53325 6.19997C9.26658 6.46663 9.26658 6.86663 9.53325 7.1333L11.3333 8.9333V13.0666L8.79992 10.5333C8.53325 10.2666 8.13325 10.2666 7.86658 10.5333C7.59992 10.8 7.59992 11.2 7.86658 11.4666L11.3333 14.9333V17.0666C7.59992 16.7333 4.66659 13.6 4.66659 9.79997C4.66659 5.7333 7.93325 2.46663 11.9999 2.46663C16.0666 2.46663 19.3333 5.7333 19.3333 9.79997C19.3333 13.0666 17.1333 15.9333 13.9999 16.8666V18.2666C18.6666 17.1333 21.5332 12.4666 20.3999 7.79997Z" fill="#364259"/>
</g>
<defs>
<clipPath id="clip0_215_696">
<rect width="24" height="24" fill="white"/>
</clipPath>
</defs>
</svg>
