<svg width="40" height="40" viewBox="0 0 40 40" fill="none" xmlns="http://www.w3.org/2000/svg">
<path d="M23.8001 16.8C26.4001 16.8 28.0001 13 28.0001 10.6C28.0001 8.6 27.0001 6.2 25.0001 6.2C22.4001 6.2 20.8001 10 20.8001 12.4C20.8001 14.4 21.8001 16.8 23.8001 16.8ZM16.2001 16.8C18.2001 16.8 19.2001 14.4 19.2001 12.4C19.2001 9.8 17.6001 6 15.0001 6C13.0001 6 12.0001 8.4 12.0001 10.4C11.8001 13 13.4001 16.8 16.2001 16.8ZM31.0001 14.8C28.4001 14.8 26.6001 18.4 26.6001 21C26.6001 22.8 27.4001 24.6 29.2001 24.6C31.8001 24.6 33.6001 21 33.6001 18.4C33.6001 16.6 32.6001 14.8 31.0001 14.8ZM13.6001 21C13.6001 18.4 11.6001 14.8 9.2001 14.8C7.4001 14.8 6.6001 16.6 6.6001 18.4C6.6001 21 8.6001 24.6 11.0001 24.6C12.8001 24.6 13.6001 22.8 13.6001 21ZM20.0001 20.6C16.0001 20.6 10.6001 27 10.6001 31.4C10.6001 33.4 12.0001 34 13.6001 34C16.0001 34 17.8001 32.4 20.0001 32.4C22.0001 32.4 23.8001 34 26.0001 34C27.6001 34 29.4001 33.6 29.4001 31.4C29.4001 27 24.0001 20.6 20.0001 20.6Z" fill="black"/>
</svg>
