<svg width="24" height="24" viewBox="0 0 24 24" fill="none" xmlns="http://www.w3.org/2000/svg">
<path d="M16.0604 2.45407C16.3417 2.73536 16.4996 3.11683 16.4996 3.51457C16.4996 3.91232 16.3417 4.29378 16.0604 4.57507L8.63545 12.0001L16.0604 19.4251C16.3337 19.708 16.4849 20.0869 16.4815 20.4802C16.478 20.8735 16.3203 21.2497 16.0422 21.5278C15.7641 21.8059 15.3878 21.9637 14.9946 21.9671C14.6013 21.9705 14.2224 21.8193 13.9395 21.5461L5.45395 13.0606C5.17274 12.7793 5.01477 12.3978 5.01477 12.0001C5.01477 11.6023 5.17274 11.2209 5.45395 10.9396L13.9395 2.45407C14.2207 2.17287 14.6022 2.01489 15 2.01489C15.3977 2.01489 15.7792 2.17287 16.0604 2.45407Z" fill="black"/>
</svg>
