<svg width="22" height="26" viewBox="0 0 22 26" fill="none" xmlns="http://www.w3.org/2000/svg">
<g clip-path="url(#clip0_631_12428)">
<path d="M21.026 5.51339C21.2934 5.78423 21.5226 6.15179 21.7135 6.61607C21.9045 7.08036 22 7.50595 22 7.89286V24.6071C22 24.994 21.8663 25.3229 21.599 25.5938C21.3316 25.8646 21.0069 26 20.625 26H1.375C0.993056 26 0.668403 25.8646 0.401042 25.5938C0.133681 25.3229 0 24.994 0 24.6071V1.39286C0 1.00595 0.133681 0.677083 0.401042 0.40625C0.668403 0.135417 0.993056 0 1.375 0H14.2083C14.5903 0 15.0104 0.0967262 15.4688 0.290179C15.9271 0.483631 16.2899 0.715774 16.5573 0.986607L21.026 5.51339ZM14.6667 1.97321V7.42857H20.0521C19.9566 7.14807 19.8516 6.94978 19.737 6.8337L15.2539 2.29241C15.1393 2.17634 14.9436 2.06994 14.6667 1.97321ZM20.1667 24.1429V9.28571H14.2083C13.8264 9.28571 13.5017 9.1503 13.2344 8.87946C12.967 8.60863 12.8333 8.27976 12.8333 7.89286V1.85714H1.83333V24.1429H20.1667ZM18.3333 17.6429V22.2857H3.66667V19.5L6.41667 16.7143L8.25 18.5714L13.75 13L18.3333 17.6429ZM6.41667 14.8571C5.65278 14.8571 5.00347 14.5863 4.46875 14.0446C3.93403 13.503 3.66667 12.8452 3.66667 12.0714C3.66667 11.2976 3.93403 10.6399 4.46875 10.0982C5.00347 9.55655 5.65278 9.28571 6.41667 9.28571C7.18056 9.28571 7.82986 9.55655 8.36458 10.0982C8.89931 10.6399 9.16667 11.2976 9.16667 12.0714C9.16667 12.8452 8.89931 13.503 8.36458 14.0446C7.82986 14.5863 7.18056 14.8571 6.41667 14.8571Z" fill="#55678B"/>
</g>
<defs>
<clipPath id="clip0_631_12428">
<rect width="22" height="26" fill="white"/>
</clipPath>
</defs>
</svg>
