<svg width="24" height="24" viewBox="0 0 24 24" fill="none" xmlns="http://www.w3.org/2000/svg">
<g clip-path="url(#clip0_486_3419)">
<path d="M23.6249 0.147321C23.9195 0.361607 24.0401 0.647321 23.9865 1.00446L20.5579 21.5759C20.5133 21.8348 20.3704 22.0357 20.1294 22.1786C20.0044 22.25 19.866 22.2857 19.7142 22.2857C19.616 22.2857 19.5088 22.2634 19.3928 22.2188L13.3258 19.7411L10.0847 23.692C9.92401 23.8973 9.70526 24 9.42847 24C9.3124 24 9.21419 23.9821 9.13383 23.9464C8.96419 23.8839 8.82803 23.779 8.72535 23.6317C8.62267 23.4844 8.57133 23.3214 8.57133 23.1429V18.4688L20.1428 4.28571L5.82579 16.6741L0.535615 14.5045C0.205258 14.3795 0.0266869 14.1339 -9.88188e-05 13.7679C-0.017956 13.4107 0.124901 13.1473 0.428473 12.9777L22.7142 0.120536C22.8481 0.0401786 22.991 0 23.1428 0C23.3213 0 23.482 0.0491071 23.6249 0.147321Z" fill="black"/>
</g>
<defs>
<clipPath id="clip0_486_3419">
<rect width="24" height="24" fill="white"/>
</clipPath>
</defs>
</svg>
