<svg width="24" height="24" viewBox="0 0 24 24" fill="none" xmlns="http://www.w3.org/2000/svg">
<path d="M5.20954 2.997C5.34145 2.76976 5.53072 2.58114 5.75843 2.45005C5.98614 2.31895 6.24429 2.24997 6.50704 2.25H9.99304C10.2558 2.24997 10.5139 2.31895 10.7417 2.45005C10.9694 2.58114 11.1586 2.76976 11.2905 2.997L13.0305 5.997C13.1633 6.22574 13.2332 6.48552 13.2332 6.75C13.2332 7.01448 13.1633 7.27426 13.0305 7.503L11.2905 10.503C11.1586 10.7302 10.9694 10.9189 10.7417 11.05C10.5139 11.1811 10.2558 11.25 9.99304 11.25H6.50704C6.24429 11.25 5.98614 11.1811 5.75843 11.05C5.53072 10.9189 5.34145 10.7302 5.20954 10.503L3.46954 7.503C3.33677 7.27426 3.26685 7.01448 3.26685 6.75C3.26685 6.48552 3.33677 6.22574 3.46954 5.997L5.20954 2.997ZM9.99304 3.75H6.50704L4.76704 6.75L6.50704 9.75H9.99304L11.733 6.75L9.99304 3.75ZM5.20804 13.497C5.34007 13.2695 5.52959 13.0808 5.75758 12.9497C5.98558 12.8186 6.24404 12.7497 6.50704 12.75H9.99304C10.2558 12.75 10.5139 12.8189 10.7417 12.95C10.9694 13.0811 11.1586 13.2698 11.2905 13.497L13.0305 16.497C13.1633 16.7257 13.2332 16.9855 13.2332 17.25C13.2332 17.5145 13.1633 17.7743 13.0305 18.003L11.2905 21.003C11.1586 21.2302 10.9694 21.4189 10.7417 21.55C10.5139 21.6811 10.2558 21.75 9.99304 21.75H6.50704C6.24429 21.75 5.98614 21.6811 5.75843 21.55C5.53072 21.4189 5.34145 21.2302 5.20954 21.003L3.46954 18.003C3.33677 17.7743 3.26685 17.5145 3.26685 17.25C3.26685 16.9855 3.33677 16.7257 3.46954 16.497L5.20804 13.497ZM9.99304 14.25H6.50704L4.76704 17.25L6.50704 20.25H9.99304L11.733 17.25L9.99304 14.25ZM15.507 7.5C15.2443 7.49997 14.9861 7.56895 14.7584 7.70005C14.5307 7.83114 14.3414 8.01976 14.2095 8.247L12.4695 11.247C12.3368 11.4757 12.2668 11.7355 12.2668 12C12.2668 12.2645 12.3368 12.5243 12.4695 12.753L14.2095 15.753C14.3414 15.9802 14.5307 16.1689 14.7584 16.3C14.9861 16.4311 15.2443 16.5 15.507 16.5H18.993C19.2558 16.5 19.5139 16.4311 19.7417 16.3C19.9694 16.1689 20.1586 15.9802 20.2905 15.753L22.0305 12.753C22.1633 12.5243 22.2332 12.2645 22.2332 12C22.2332 11.7355 22.1633 11.4757 22.0305 11.247L20.2905 8.247C20.1586 8.01976 19.9694 7.83114 19.7417 7.70005C19.5139 7.56895 19.2558 7.49997 18.993 7.5H15.507ZM15.507 9H18.993L20.733 12L18.993 15H15.507L13.767 12L15.507 9Z" fill="#465472"/>
</svg>
