<svg width="36" height="31" viewBox="0 0 36 31" fill="none" xmlns="http://www.w3.org/2000/svg">
<path d="M35.5 9.9375C35.5 20.875 19.2828 29.7281 18.5922 30.0938C18.4102 30.1917 18.2067 30.2429 18 30.2429C17.7933 30.2429 17.5898 30.1917 17.4078 30.0938C16.7172 29.7281 0.5 20.875 0.5 9.9375C0.502895 7.3691 1.52447 4.90673 3.3406 3.0906C5.15673 1.27447 7.6191 0.252895 10.1875 0.25C13.4141 0.25 16.2391 1.6375 18 3.98281C19.7609 1.6375 22.5859 0.25 25.8125 0.25C28.3809 0.252895 30.8433 1.27447 32.6594 3.0906C34.4755 4.90673 35.4971 7.3691 35.5 9.9375Z" fill="#49B265"/>
</svg>
