<svg width="38" height="32" viewBox="0 0 38 32" fill="none" xmlns="http://www.w3.org/2000/svg">
<path d="M26.8125 0.625C23.6734 0.625 20.8875 1.86406 19 3.99375C17.1125 1.86406 14.3266 0.625 11.1875 0.625C8.45347 0.628308 5.83237 1.71586 3.89912 3.64911C1.96586 5.58237 0.878308 8.20347 0.875 10.9375C0.875 22.2406 17.4078 31.2719 18.1109 31.6516C18.3842 31.7987 18.6897 31.8757 19 31.8757C19.3103 31.8757 19.6158 31.7987 19.8891 31.6516C20.5922 31.2719 37.125 22.2406 37.125 10.9375C37.1217 8.20347 36.0341 5.58237 34.1009 3.64911C32.1676 1.71586 29.5465 0.628308 26.8125 0.625ZM25.9547 22.8687C23.7785 24.7154 21.4523 26.3774 19 27.8375C16.5477 26.3774 14.2215 24.7154 12.0453 22.8687C8.65937 19.9641 4.625 15.5344 4.625 10.9375C4.625 9.19701 5.3164 7.52782 6.54711 6.29711C7.77782 5.0664 9.44702 4.375 11.1875 4.375C13.9688 4.375 16.2969 5.84375 17.2641 8.20937C17.4048 8.55423 17.6451 8.84934 17.9543 9.05708C18.2635 9.26481 18.6275 9.37575 19 9.37575C19.3725 9.37575 19.7365 9.26481 20.0457 9.05708C20.3549 8.84934 20.5952 8.55423 20.7359 8.20937C21.7031 5.84375 24.0312 4.375 26.8125 4.375C28.553 4.375 30.2222 5.0664 31.4529 6.29711C32.6836 7.52782 33.375 9.19701 33.375 10.9375C33.375 15.5344 29.3406 19.9641 25.9547 22.8687Z" fill="#49B265"/>
</svg>
