<svg width="24" height="24" viewBox="0 0 24 24" fill="none" xmlns="http://www.w3.org/2000/svg">
<path d="M12.5511 13.608C11.0311 15.241 5.21112 18.011 7.02812 21.028C7.68012 22.11 9.56012 22 10.8601 22H13.1381C16.5531 22 18.2601 22 19.4281 21.029C20.5961 20.057 20.8461 18.429 21.3471 15.172L21.6471 13.213C22.0011 10.916 22.1771 9.768 21.7431 8.749C21.3091 7.731 20.3451 7.034 18.4181 5.641L16.9791 4.6C14.5821 2.867 13.3831 2 12.0001 2C10.6171 2 9.41812 2.867 7.02112 4.6L5.58112 5.641C3.65411 7.034 2.69112 7.731 2.25612 8.749C1.82212 9.768 1.99812 10.916 2.35112 13.213L2.65212 15.173C3.00812 17.489 3.23812 18.982 3.76112 20M12.1811 18.126C14.5481 17.667 16.1711 16.21 16.9341 13.855C17.7981 11.188 16.6271 7.884 13.6751 7.119C13.6751 7.119 14.5851 8.204 13.9971 9.156C12.8641 11.196 9.62512 10.517 8.32512 13.116C7.56012 14.568 7.79212 16.285 8.89412 17.356C9.58612 18.029 11.0441 18.346 12.1811 18.126Z" stroke="#364259" stroke-width="2" stroke-linecap="round" stroke-linejoin="round"/>
</svg>
