<svg width="24" height="24" viewBox="0 0 24 24" fill="none" xmlns="http://www.w3.org/2000/svg">
<path d="M12 9C12 4.5 14 4 16 4C16 7 14.5 9 12 9ZM12 9C12 4.5 9.99998 4 7.99998 4C7.99998 7 9.49998 9 12 9ZM12 9V15M9.99998 4C9.99998 4 10.5 2.5 12 2C13.5 2.5 14 4 14 4M12 13C12.25 12.333 13.2 11 15 11M13.15 15H10.85C8.79698 15 7.76998 15 7.26398 15.597C6.75798 16.193 7.03998 17.07 7.60398 18.824L7.69698 19.115C8.14098 20.495 8.36298 21.185 8.95298 21.588L8.97998 21.605C9.57798 22 10.385 22 12 22C13.615 22 14.422 22 15.02 21.605L15.047 21.588C15.637 21.186 15.859 20.495 16.303 19.115L16.397 18.825C16.96 17.07 17.242 16.193 16.736 15.597C16.229 15 15.203 15 13.15 15Z" stroke="black" stroke-width="1.5" stroke-linecap="round" stroke-linejoin="round"/>
</svg>
