<svg width="24" height="24" viewBox="0 0 24 24" fill="none" xmlns="http://www.w3.org/2000/svg">
<path d="M20.5 19H9.5V22H20.5V19Z" stroke="black" stroke-width="1.5" stroke-linejoin="round"/>
<path d="M9.50003 19C6.24036 15.4387 4.37003 13.3747 3.88903 12.808C3.16753 11.958 3.47053 10.998 5.27653 10.998C7.08253 10.998 8.12403 13.6405 9.50003 13.6405C9.50836 13.6425 9.50886 10.263 9.50153 3.502C9.50126 3.30493 9.53983 3.10975 9.61504 2.92759C9.69024 2.74544 9.8006 2.57989 9.9398 2.4404C10.079 2.30091 10.2443 2.19022 10.4263 2.11466C10.6083 2.03909 10.8035 2.00013 11.0005 2H11.002C11.1993 1.99993 11.3947 2.03874 11.577 2.11419C11.7593 2.18964 11.9249 2.30027 12.0644 2.43975C12.204 2.57923 12.3146 2.74483 12.3901 2.92709C12.4657 3.10936 12.5045 3.30471 12.5045 3.502V7.507C16.4905 8.111 18.6577 8.44433 19.006 8.507C19.5285 8.601 20.5 9.1 20.5 10.534V19H9.50003Z" stroke="black" stroke-width="1.5" stroke-linejoin="round"/>
</svg>
