<svg width="35" height="35" viewBox="0 0 35 35" fill="none" xmlns="http://www.w3.org/2000/svg">
<path d="M17.5 26.2501C16.858 26.2502 16.2339 26.0384 15.7244 25.6477C15.215 25.2569 14.8488 24.709 14.6825 24.0889" stroke="black" stroke-width="2" stroke-linecap="round"/>
<path d="M15.2016 6.82357C16.1218 5.25877 16.5827 4.47565 17.2404 4.35898C17.412 4.32793 17.5879 4.32793 17.7595 4.35898C18.4173 4.47565 18.8781 5.25877 19.7983 6.82357L22.2308 10.9594C23.9307 13.85 25.2572 16.9445 26.1785 20.1688C27.6762 25.4086 23.7431 30.625 18.2918 30.625H16.7081C11.2583 30.625 7.32371 25.4086 8.82142 20.1688C9.74275 16.9445 11.0692 13.85 12.7691 10.9594L15.2016 6.82357Z" stroke="black" stroke-width="2"/>
</svg>
