<svg width="24" height="24" viewBox="0 0 24 24" fill="none" xmlns="http://www.w3.org/2000/svg">
<path d="M5.0001 19V9.452L2.6041 11.231L2.0061 10.444L12.0001 3L22.0201 10.439L21.4161 11.231L12.0001 4.25L6.0001 8.716V18H9.6731V19H5.0001ZM17.5001 21.76C16.7488 22.2813 16.0131 22.5303 15.2931 22.507C14.5731 22.4837 13.9324 22.191 13.3711 21.629C12.8098 21.067 12.5171 20.423 12.4931 19.697C12.4698 18.9703 12.7188 18.238 13.2401 17.5C12.7188 16.7487 12.4698 16.013 12.4931 15.293C12.5164 14.573 12.8091 13.9323 13.3711 13.371C13.9331 12.8097 14.5771 12.517 15.3031 12.493C16.0298 12.4697 16.7621 12.7187 17.5001 13.24C18.2514 12.7187 18.9871 12.4697 19.7071 12.493C20.4271 12.5163 21.0678 12.809 21.6291 13.371C22.1904 13.933 22.4831 14.577 22.5071 15.303C22.5304 16.0297 22.2811 16.762 21.7591 17.5C22.2811 18.2513 22.5304 18.987 22.5071 19.707C22.4838 20.427 22.1911 21.0677 21.6291 21.629C21.0671 22.1903 20.4231 22.483 19.6971 22.507C18.9711 22.531 18.2388 22.2827 17.5001 21.76ZM17.5001 20.54L18.3621 21.129C18.7648 21.4097 19.2048 21.53 19.6821 21.49C20.1608 21.45 20.5721 21.2583 20.9161 20.915C21.2594 20.5717 21.4541 20.161 21.5001 19.683C21.5461 19.205 21.4288 18.7643 21.1481 18.361L20.5411 17.5L21.1291 16.639C21.4098 16.2363 21.5301 15.7957 21.4901 15.317C21.4501 14.839 21.2588 14.4283 20.9161 14.085C20.5721 13.741 20.1611 13.546 19.6831 13.5C19.2051 13.454 18.7644 13.5713 18.3611 13.852L17.5001 14.459L16.6391 13.871C16.2364 13.5903 15.7958 13.4697 15.3171 13.509C14.8391 13.549 14.4284 13.7407 14.0851 14.084C13.7411 14.428 13.5461 14.839 13.5001 15.317C13.4541 15.795 13.5714 16.2357 13.8521 16.639L14.4601 17.5L13.8711 18.362C13.5904 18.7647 13.4698 19.2047 13.5091 19.682C13.5491 20.1607 13.7408 20.572 14.0841 20.916C14.4281 21.2593 14.8391 21.454 15.3171 21.5C15.7951 21.546 16.2358 21.4287 16.6391 21.148L17.5001 20.54ZM17.5001 18.288C17.7221 18.288 17.9088 18.212 18.0601 18.06C18.2128 17.9087 18.2891 17.722 18.2891 17.5C18.2891 17.278 18.2131 17.0913 18.0611 16.94C17.9091 16.7873 17.7221 16.711 17.5001 16.711C17.2781 16.711 17.0914 16.787 16.9401 16.939C16.7888 17.091 16.7124 17.278 16.7111 17.5C16.7098 17.722 16.7858 17.9087 16.9391 18.06C17.0924 18.2113 17.2794 18.2873 17.5001 18.288Z" fill="black"/>
</svg>
