<svg width="24" height="24" viewBox="0 0 24 24" fill="none" xmlns="http://www.w3.org/2000/svg">
<path d="M6.35603 3.23491C6.51686 3.09945 6.71628 3.01814 6.92597 3.00252C7.13565 2.9869 7.34492 3.03777 7.52403 3.14791C10.98 5.27491 12.874 7.96591 13.884 10.9279C14.134 11.6609 14.329 12.4079 14.48 13.1639C15.509 11.4339 17.153 10.0619 19.629 9.07191C19.8036 9.00219 19.9943 8.98309 20.1793 9.01681C20.3642 9.05053 20.5359 9.1357 20.6746 9.26254C20.8134 9.38939 20.9136 9.55278 20.9637 9.73396C21.0138 9.91514 21.0119 10.1068 20.958 10.2869L20.777 10.8909C19.417 15.4189 19 16.8059 19 19.9999C19 20.2651 18.8947 20.5195 18.7071 20.707C18.5196 20.8946 18.2653 20.9999 18 20.9999C17.7348 20.9999 17.4805 20.8946 17.2929 20.707C17.1054 20.5195 17 20.2651 17 19.9999C17 16.9449 17.38 15.2999 18.37 11.9579C17.248 12.7019 16.509 13.5659 16.013 14.5229C15.248 15.9969 15 17.8049 15 19.9999C15 20.2651 14.8947 20.5195 14.7071 20.707C14.5196 20.8946 14.2653 20.9999 14 20.9999C13.7348 20.9999 13.4805 20.8946 13.2929 20.707C13.1054 20.5195 13 20.2651 13 19.9999C13 17.0079 12.87 14.1529 11.991 11.5729C11.401 9.84391 10.469 8.22191 8.97303 6.77091C9.99003 10.6309 10 14.3549 10 19.7449V19.9999C10 20.2651 9.89468 20.5195 9.70714 20.707C9.51961 20.8946 9.26525 20.9999 9.00003 20.9999C8.73482 20.9999 8.48046 20.8946 8.29293 20.707C8.10539 20.5195 8.00003 20.2651 8.00003 19.9999C8.00003 17.7099 7.99003 15.6289 7.42303 13.8699C7.09703 12.8569 6.58303 11.9499 5.74003 11.1959C6.66003 14.3489 7.00003 16.6829 7.00003 19.9999C7.00003 20.2651 6.89468 20.5195 6.70714 20.707C6.5196 20.8946 6.26525 20.9999 6.00003 20.9999C5.73482 20.9999 5.48046 20.8946 5.29293 20.707C5.10539 20.5195 5.00003 20.2651 5.00003 19.9999C5.00003 16.1359 4.52804 13.7449 3.05104 9.31591C2.99092 9.13504 2.98375 8.94076 3.03037 8.75595C3.07699 8.57114 3.17545 8.4035 3.31415 8.27278C3.45286 8.14206 3.62604 8.0537 3.81328 8.01811C4.00053 7.98253 4.19404 8.00119 4.37103 8.07191C5.76603 8.62891 6.82603 9.37291 7.62603 10.2519C7.35948 8.23394 6.83729 6.25808 6.07203 4.37191C5.99373 4.17661 5.97903 3.96159 6.03002 3.75745C6.08101 3.55331 6.1951 3.37045 6.35603 3.23491Z" fill="black"/>
</svg>
