<svg width="16" height="16" viewBox="0 0 16 16" fill="none" xmlns="http://www.w3.org/2000/svg">
<path fill-rule="evenodd" clip-rule="evenodd" d="M10.159 10.7201C10.0853 10.7887 10.0262 10.8715 9.98522 10.9635C9.94423 11.0555 9.92218 11.1548 9.92041 11.2555C9.91863 11.3562 9.93716 11.4563 9.97488 11.5497C10.0126 11.643 10.0687 11.7279 10.14 11.7991C10.2112 11.8703 10.296 11.9265 10.3894 11.9642C10.4828 12.0019 10.5828 12.0204 10.6835 12.0187C10.7842 12.0169 10.8835 11.9948 10.9755 11.9538C11.0675 11.9128 11.1503 11.8537 11.219 11.7801L14.469 8.53006L15 8.00006L14.47 7.47006L11.22 4.22006C11.0786 4.08337 10.8892 4.00769 10.6925 4.0093C10.4959 4.01092 10.3078 4.08971 10.1686 4.2287C10.0295 4.36769 9.95054 4.55576 9.94874 4.75241C9.94694 4.94906 10.0224 5.13854 10.159 5.28006L12.129 7.25006H1.75C1.55109 7.25006 1.36032 7.32908 1.21967 7.46973C1.07902 7.61038 1 7.80115 1 8.00006C1 8.19897 1.07902 8.38974 1.21967 8.53039C1.36032 8.67104 1.55109 8.75006 1.75 8.75006H12.129L10.159 10.7201Z" fill="black"/>
</svg>
