<svg width="24" height="24" viewBox="0 0 24 24" fill="none" xmlns="http://www.w3.org/2000/svg">
<path d="M18.75 13.5H11.5594L11.7797 13.2797L13.6603 11.3991C14.4199 11.7816 15.2568 11.9855 16.1072 11.9953C16.9632 11.9976 17.8031 11.7633 18.5344 11.3184C20.7582 9.97219 21.9497 6.85594 21.7219 2.98219C21.7112 2.79871 21.6335 2.62555 21.5035 2.49558C21.3736 2.36562 21.2004 2.28791 21.0169 2.27719C17.1432 2.05032 14.0269 3.24094 12.6807 5.46469C11.8032 6.91313 11.7807 8.6625 12.5991 10.3397L11.25 11.6888L10.1053 10.5441C10.6678 9.30188 10.6275 8.01281 9.97504 6.93656C8.95597 5.25 6.61972 4.35094 3.72472 4.52063C3.54156 4.53154 3.36875 4.60922 3.239 4.73897C3.10926 4.86872 3.03158 5.04153 3.02066 5.22469C2.85004 8.11875 3.75004 10.455 5.43754 11.475C6.00206 11.8198 6.65105 12.0015 7.31254 12C7.91264 11.994 8.50456 11.8601 9.04879 11.6072L10.1888 12.75L9.43879 13.5H5.25004C5.05112 13.5 4.86036 13.579 4.71971 13.7197C4.57905 13.8603 4.50004 14.0511 4.50004 14.25C4.50004 14.4489 4.57905 14.6397 4.71971 14.7803C4.86036 14.921 5.05112 15 5.25004 15H6.1491L7.38754 20.5753C7.46013 20.9092 7.64518 21.2081 7.91174 21.4219C8.1783 21.6358 8.51019 21.7516 8.85191 21.75H15.1491C15.4908 21.7516 15.8227 21.6358 16.0893 21.4219C16.3558 21.2081 16.5409 20.9092 16.6135 20.5753L17.8519 15H18.75C18.9489 15 19.1397 14.921 19.2804 14.7803C19.421 14.6397 19.5 14.4489 19.5 14.25C19.5 14.0511 19.421 13.8603 19.2804 13.7197C19.1397 13.579 18.9489 13.5 18.75 13.5ZM13.9688 6.24188C14.9494 4.62375 17.2725 3.71063 20.25 3.75094C20.2885 6.73313 19.3772 9.05532 17.7591 10.0322C16.68 10.6884 15.3778 10.6453 14.0766 9.92157C13.3519 8.625 13.3125 7.32094 13.9688 6.24188ZM8.63535 10.1353C7.77285 10.5975 6.91879 10.6191 6.21379 10.1916C5.13566 9.53813 4.5141 7.99782 4.50004 6C6.49785 6.01407 8.0391 6.63563 8.6916 7.71375C9.1191 8.41875 9.09379 9.27282 8.63535 10.1353ZM15.1491 20.25H8.85191L7.68754 15H16.3125L15.1491 20.25Z" fill="black"/>
</svg>
