<svg width="24" height="24" viewBox="0 0 24 24" fill="none" xmlns="http://www.w3.org/2000/svg">
<path d="M7.37601 20.013C7.29078 19.9636 7.19666 19.9315 7.09903 19.9185C7.00139 19.9055 6.90215 19.9119 6.80697 19.9372C6.71179 19.9626 6.62254 20.0064 6.5443 20.0663C6.46607 20.1261 6.40039 20.2008 6.35101 20.286C6.30163 20.3712 6.26953 20.4653 6.25652 20.563C6.24352 20.6606 6.24988 20.7599 6.27523 20.855C6.30058 20.9502 6.34443 21.0395 6.40427 21.1177C6.46412 21.1959 6.53878 21.2616 6.62401 21.311L7.37601 20.013ZM2.68901 17.375C2.73633 17.4639 2.80106 17.5423 2.87934 17.6056C2.95761 17.6689 3.04783 17.7158 3.14462 17.7435C3.24141 17.7712 3.34279 17.7792 3.44271 17.7668C3.54263 17.7545 3.63905 17.7222 3.72622 17.6719C3.8134 17.6215 3.88953 17.5541 3.9501 17.4737C4.01067 17.3933 4.05442 17.3015 4.07876 17.2038C4.10309 17.1061 4.10751 17.0045 4.09175 16.9051C4.07599 16.8056 4.04037 16.7104 3.98701 16.625L2.68901 17.375ZM21.25 12C21.25 14.4533 20.2755 16.806 18.5407 18.5407C16.806 20.2754 14.4533 21.25 12 21.25V22.75C17.937 22.75 22.75 17.937 22.75 12H21.25ZM2.75001 12C2.75001 9.54675 3.72456 7.19397 5.45927 5.45926C7.19399 3.72455 9.54676 2.75 12 2.75V1.25C6.06301 1.25 1.25001 6.063 1.25001 12H2.75001ZM15.5 14.25C13.975 14.25 12.5125 13.6442 11.4341 12.5659C10.3558 11.4875 9.75001 10.025 9.75001 8.5H8.25001C8.25001 10.4228 9.01385 12.2669 10.3735 13.6265C11.7331 14.9862 13.5772 15.75 15.5 15.75V14.25ZM20.425 11.469C19.9133 12.3176 19.191 13.0197 18.3281 13.5069C17.4652 13.9942 16.491 14.2501 15.5 14.25V15.75C16.7494 15.7504 17.9777 15.4279 19.0657 14.8138C20.1538 14.1997 21.0646 13.3148 21.71 12.245L20.425 11.469ZM9.75001 8.5C9.74987 7.50903 10.0058 6.53483 10.4931 5.67193C10.9804 4.80902 11.6824 4.08669 12.531 3.575L11.755 2.291C10.6854 2.93628 9.8006 3.84701 9.1865 4.93486C8.5724 6.02271 8.24981 7.25078 8.25001 8.5H9.75001ZM12 2.75C11.9498 2.74903 11.9002 2.73811 11.8542 2.71785C11.8082 2.6976 11.7667 2.66842 11.732 2.632C11.6899 2.58965 11.6613 2.53568 11.65 2.477C11.646 2.446 11.648 2.356 11.755 2.291L12.531 3.575C13.034 3.271 13.196 2.714 13.137 2.276C13.075 1.821 12.717 1.25 12 1.25V2.75ZM21.71 12.245C21.644 12.352 21.554 12.354 21.523 12.35C21.4643 12.3387 21.4104 12.3102 21.368 12.268C21.3316 12.2334 21.3024 12.1918 21.2822 12.1458C21.2619 12.0998 21.251 12.0503 21.25 12H22.75C22.75 11.283 22.179 10.925 21.724 10.863C21.286 10.804 20.729 10.966 20.425 11.469L21.71 12.245ZM12 21.25C10.3765 21.2529 8.7812 20.8261 7.37601 20.013L6.62401 21.311C8.25772 22.2565 10.1125 22.7529 12 22.75V21.25ZM3.98701 16.625C3.17374 15.2195 2.74696 13.6238 2.75001 12H1.25001C1.24727 13.8872 1.74373 15.7416 2.68901 17.375L3.98701 16.625Z" fill="#0063BD"/>
</svg>
