<svg width="32" height="32" viewBox="0 0 32 32" fill="none" xmlns="http://www.w3.org/2000/svg">
<path d="M20 8.00008V6.66675C20 5.60588 19.5786 4.58847 18.8284 3.83832C18.0783 3.08818 17.0609 2.66675 16 2.66675C14.9392 2.66675 13.9217 3.08818 13.1716 3.83832C12.4214 4.58847 12 5.60588 12 6.66675V15.1307C12 15.5814 11.7667 15.9947 11.4147 16.2774C10.229 17.2272 9.36753 18.5218 8.94933 19.9823C8.53114 21.4427 8.57686 22.9971 9.08017 24.4305C9.58347 25.8639 10.5195 27.1056 11.759 27.984C12.9985 28.8624 14.4802 29.3343 15.9994 29.3343C17.5185 29.3343 19.0002 28.8624 20.2397 27.984C21.4792 27.1056 22.4152 25.8639 22.9185 24.4305C23.4218 22.9971 23.4676 21.4427 23.0494 19.9823C22.6312 18.5218 21.7697 17.2272 20.584 16.2774C20.2333 15.9947 20 15.5814 20 15.1307V13.3334" stroke="black" stroke-width="1.5" stroke-linecap="round"/>
<path d="M19.3333 22.0001C19.3333 22.8841 18.9821 23.732 18.357 24.3571C17.7319 24.9822 16.884 25.3334 16 25.3334C15.1159 25.3334 14.2681 24.9822 13.6429 24.3571C13.0178 23.732 12.6666 22.8841 12.6666 22.0001C12.6666 21.116 13.0178 20.2682 13.6429 19.6431C14.2681 19.0179 15.1159 18.6667 16 18.6667C16.884 18.6667 17.7319 19.0179 18.357 19.6431C18.9821 20.2682 19.3333 21.116 19.3333 22.0001Z" stroke="black" stroke-width="1.5"/>
<path d="M16 18.6667V16.0001M16 6.66675V10.6667" stroke="black" stroke-width="1.5" stroke-linecap="round"/>
</svg>
