<svg width="32" height="32" viewBox="0 0 32 32" fill="none" xmlns="http://www.w3.org/2000/svg">
<path d="M15.9998 2.66699V4.00033M15.9998 28.0003V29.3337M29.3332 16.0003H27.9998M3.99984 16.0003H2.6665M25.4265 6.57366L24.9038 7.09766M7.09584 24.9043L6.57184 25.4283M25.4265 25.427L24.9038 24.903M7.09584 7.09633L6.57184 6.57233M8.4545 13.3337C7.85019 15.0444 7.84537 16.9098 8.44081 18.6237C9.03626 20.3376 10.1966 21.7981 11.7315 22.7657C13.2663 23.7333 15.0845 24.1504 16.8876 23.9486C18.6907 23.7468 20.3716 22.938 21.6546 21.6551C22.9375 20.3721 23.7463 18.6912 23.9481 16.8881C24.1499 15.0849 23.7328 13.2668 22.7652 11.7319C21.7976 10.1971 20.3371 9.03675 18.6232 8.4413C16.9093 7.84585 15.0439 7.85068 13.3332 8.45499" stroke="#895B00" stroke-width="2" stroke-linecap="round"/>
</svg>
