<svg width="24" height="24" viewBox="0 0 24 24" fill="none" xmlns="http://www.w3.org/2000/svg">
<path d="M22 14.353C22 17.472 19.442 20 16.286 20H11M14.381 9.027C14.9936 8.81426 15.6375 8.70575 16.286 8.706C16.94 8.706 17.569 8.815 18.156 9.015M18.156 9.015C17.837 6.194 15.416 4 12.476 4C9.32 4 6.762 6.528 6.762 9.647C6.7617 10.3169 6.8816 10.9814 7.116 11.609M18.156 9.015C18.8307 9.24529 19.4562 9.60009 20 10.061M7.116 11.609C6.84249 11.5561 6.56458 11.5293 6.286 11.529C3.919 11.53 2 13.426 2 15.765C2 18.104 3.919 20 6.286 20H7M7.116 11.609C7.66922 11.7167 8.19588 11.9321 8.666 12.243" stroke="black" stroke-width="1.5" stroke-linecap="round"/>
<path d="M11.0001 4.00008C10.5407 3.38824 9.94706 2.88999 9.26482 2.54369C8.58258 2.19738 7.82996 2.01227 7.06492 2.0026C6.29988 1.99292 5.54282 2.15895 4.85204 2.4879C4.16126 2.81684 3.55518 3.29992 3.08047 3.89995C2.60577 4.49998 2.27509 5.20095 2.11392 5.94888C1.95274 6.69682 1.96535 7.47176 2.15079 8.21405C2.33623 8.95634 2.68954 9.64617 3.18353 10.2304C3.67752 10.8147 4.299 11.2778 5.00012 11.5841" stroke="black" stroke-width="1.5"/>
</svg>
