<svg width="32" height="32" viewBox="0 0 32 32" fill="none" xmlns="http://www.w3.org/2000/svg">
<path fill-rule="evenodd" clip-rule="evenodd" d="M16 3.66668C14.1776 3.66703 12.3983 4.2206 10.8973 5.25417C9.39641 6.28774 8.2446 7.75261 7.59428 9.45501C6.94396 11.1574 6.82576 13.0171 7.25533 14.7881C7.6849 16.5592 8.64199 18.1581 10 19.3733L10.004 19.3787C10.7467 20.044 11.3107 20.548 11.7133 20.9187C12.0933 21.2653 12.3933 21.5507 12.552 21.7453L12.568 21.7653C12.864 22.1293 13.12 22.4467 13.2907 22.8267C13.46 23.2053 13.524 23.6093 13.5987 24.072L13.6027 24.0987C13.6413 24.336 13.656 24.6267 13.6627 25H18.3373C18.344 24.6267 18.3587 24.336 18.3973 24.0987L18.4013 24.072C18.476 23.6093 18.54 23.2053 18.7093 22.8267C18.88 22.4467 19.136 22.1293 19.432 21.7653L19.448 21.7453C19.6067 21.5507 19.9067 21.2653 20.2867 20.9187C20.6893 20.548 21.2533 20.044 21.996 19.3787L22.0013 19.3733C23.3594 18.158 24.3166 16.559 24.7461 14.7878C25.1756 13.0167 25.0573 11.1568 24.4068 9.45438C23.7563 7.75193 22.6043 6.28707 21.1032 5.2536C19.602 4.22013 17.8225 3.66676 16 3.66668ZM18.3253 27H13.6747C13.68 27.1378 13.6871 27.2609 13.696 27.3693C13.7227 27.6693 13.7693 27.7787 13.8013 27.8333C13.889 27.985 14.015 28.111 14.1667 28.1987C14.22 28.2307 14.3307 28.276 14.6307 28.304C14.944 28.332 15.3587 28.3333 16 28.3333C16.6413 28.3333 17.056 28.3333 17.3693 28.304C17.6693 28.2773 17.7787 28.2307 17.8333 28.1987C17.985 28.111 18.111 27.985 18.1987 27.8333C18.2307 27.78 18.2773 27.6693 18.304 27.3693C18.3129 27.2609 18.32 27.1378 18.3253 27ZM5.00001 12.6667C5.00014 10.832 5.45917 9.02648 6.33531 7.41451C7.21145 5.80254 8.47687 4.43532 10.0164 3.43731C11.5559 2.4393 13.3205 1.84221 15.1497 1.70039C16.9789 1.55858 18.8145 1.87654 20.4895 2.62534C22.1644 3.37413 23.6254 4.52998 24.7396 5.98764C25.8537 7.44531 26.5855 9.15849 26.8684 10.9712C27.1514 12.784 26.9764 14.6387 26.3594 16.3665C25.7424 18.0944 24.7031 19.6404 23.336 20.864C22.7672 21.3705 22.201 21.8798 21.6373 22.392C21.4383 22.5749 21.2427 22.7616 21.0507 22.952L21.0027 23.004C20.656 23.432 20.58 23.5427 20.536 23.6427C20.4907 23.7427 20.4587 23.872 20.372 24.416C20.3373 24.6307 20.3333 24.9987 20.3333 26V26.0427C20.3333 26.6293 20.3333 27.136 20.296 27.5493C20.256 27.9893 20.168 28.424 19.932 28.8333C19.6686 29.2897 19.2897 29.6686 18.8333 29.932C18.424 30.168 17.9893 30.256 17.5507 30.296C17.1347 30.3333 16.6293 30.3333 16.044 30.3333H15.9573C15.3707 30.3333 14.864 30.3333 14.4507 30.296C14.0107 30.256 13.576 30.168 13.1667 29.932C12.7103 29.6686 12.3314 29.2897 12.068 28.8333C11.832 28.424 11.744 27.9893 11.704 27.5507C11.6667 27.1347 11.6667 26.6293 11.6667 26.044V26C11.6667 25 11.6627 24.6307 11.628 24.416C11.5413 23.872 11.508 23.7427 11.464 23.6427C11.42 23.5427 11.344 23.432 10.9973 23.0027L10.984 22.9893L10.9493 22.9507L10.82 22.8213C10.6695 22.6761 10.5171 22.533 10.3627 22.392C9.96934 22.032 9.41334 21.5347 8.66401 20.864C7.50981 19.8332 6.58667 18.57 5.9552 17.1573C5.32374 15.7445 4.99821 14.2141 5.00001 12.6667ZM13.1893 17.8C13.3031 17.7342 13.4286 17.6915 13.5589 17.6742C13.6891 17.657 13.8215 17.6656 13.9484 17.6995C14.0753 17.7334 14.1943 17.792 14.2985 17.872C14.4028 17.9519 14.4903 18.0516 14.556 18.1653C14.7022 18.419 14.9126 18.6297 15.1661 18.7762C15.4196 18.9226 15.7072 18.9998 16 18.9998C16.2928 18.9998 16.5804 18.9226 16.8339 18.7762C17.0874 18.6297 17.2978 18.419 17.444 18.1653C17.5098 18.0516 17.5974 17.952 17.7018 17.8721C17.8061 17.7922 17.9252 17.7337 18.0521 17.6998C18.1791 17.666 18.3115 17.6574 18.4418 17.6747C18.572 17.6921 18.6976 17.7348 18.8113 17.8007C18.9251 17.8665 19.0247 17.9541 19.1046 18.0585C19.1845 18.1628 19.243 18.2819 19.2769 18.4088C19.3107 18.5358 19.3192 18.6682 19.3019 18.7984C19.2846 18.9287 19.2418 19.0543 19.176 19.168C18.6975 19.9931 17.9174 20.6002 17 20.8613V22.6667C17 22.9319 16.8946 23.1863 16.7071 23.3738C16.5196 23.5613 16.2652 23.6667 16 23.6667C15.7348 23.6667 15.4804 23.5613 15.2929 23.3738C15.1054 23.1863 15 22.9319 15 22.6667V20.8613C14.0826 20.6002 13.3025 19.9931 12.824 19.168C12.7582 19.0543 12.7155 18.9287 12.6982 18.7985C12.681 18.6683 12.6896 18.5359 12.7235 18.409C12.7574 18.2821 12.816 18.1631 12.896 18.0588C12.9759 17.9546 13.0756 17.8657 13.1893 17.8Z" fill="black"/>
</svg>
