<svg width="20" height="20" viewBox="0 0 20 20" fill="none" xmlns="http://www.w3.org/2000/svg">
<path d="M18.9248 1.089C18.7938 0.957665 18.6381 0.853473 18.4667 0.782382C18.2953 0.711292 18.1116 0.674699 17.9261 0.674699C17.7405 0.674699 17.5568 0.711292 17.3854 0.782382C17.2141 0.853473 17.0584 0.957665 16.9273 1.089L9.99983 8.00233L3.07233 1.07483C2.94117 0.943671 2.78546 0.839631 2.6141 0.768648C2.44273 0.697666 2.25906 0.661133 2.07358 0.661133C1.88809 0.661133 1.70442 0.697666 1.53306 0.768648C1.36169 0.83963 1.20599 0.943671 1.07483 1.07483C0.943671 1.20599 0.83963 1.36169 0.768648 1.53306C0.697666 1.70442 0.661133 1.88809 0.661133 2.07358C0.661133 2.25906 0.697666 2.44273 0.768648 2.6141C0.839631 2.78546 0.943671 2.94117 1.07483 3.07233L8.00233 9.99983L1.07483 16.9273C0.943671 17.0585 0.83963 17.2142 0.768648 17.3856C0.697666 17.5569 0.661133 17.7406 0.661133 17.9261C0.661133 18.1116 0.697666 18.2952 0.768648 18.4666C0.83963 18.638 0.943671 18.7937 1.07483 18.9248C1.20599 19.056 1.36169 19.16 1.53306 19.231C1.70442 19.302 1.88809 19.3385 2.07358 19.3385C2.25906 19.3385 2.44273 19.302 2.6141 19.231C2.78546 19.16 2.94117 19.056 3.07233 18.9248L9.99983 11.9973L16.9273 18.9248C17.0585 19.056 17.2142 19.16 17.3856 19.231C17.5569 19.302 17.7406 19.3385 17.9261 19.3385C18.1116 19.3385 18.2952 19.302 18.4666 19.231C18.638 19.16 18.7937 19.056 18.9248 18.9248C19.056 18.7937 19.16 18.638 19.231 18.4666C19.302 18.2952 19.3385 18.1116 19.3385 17.9261C19.3385 17.7406 19.302 17.5569 19.231 17.3856C19.16 17.2142 19.056 17.0585 18.9248 16.9273L11.9973 9.99983L18.9248 3.07233C19.4632 2.534 19.4632 1.62733 18.9248 1.089Z" fill="#55678B"/>
</svg>
